<svg width="32" height="32" viewBox="0 0 32 32" fill="none" xmlns="http://www.w3.org/2000/svg">
<path d="M10.8814 3.19971H6.40137V4.47971H10.8814V3.19971Z" fill="#FFC726"/>
<path d="M15.3611 3.19971H12.1611V4.47971H15.3611V3.19971Z" fill="#FFC726"/>
<path d="M7.68137 5.75977H6.40137V7.03977H7.68137V5.75977Z" fill="#FFC726"/>
<path d="M15.3604 5.75977H8.96045V7.03977H15.3604V5.75977Z" fill="#FFC726"/>
<path d="M13.4411 27.52H12.1611V28.8H13.4411V27.52Z" fill="#FFC726"/>
<path d="M19.8402 27.52H14.7202V28.8H19.8402V27.52Z" fill="#FFC726"/>
<path d="M29.44 17.9199V14.4549L26.3469 11.3618C26.6822 10.8556 26.88 10.2508 26.88 9.5999C26.88 7.83542 25.4445 6.3999 23.68 6.3999C21.9155 6.3999 20.48 7.83542 20.48 9.5999C20.48 11.3644 21.9155 12.7999 23.68 12.7999C24.3309 12.7999 24.9357 12.6021 25.4419 12.2668L28.16 14.9849V17.9199H0V25.5999H3.11488L3.84512 31.4393L5.11488 31.2805L4.40512 25.5999L3.92512 21.7599H28.0749L27.5949 25.5999L26.8851 31.2805L28.1549 31.4393L28.8851 25.5999H32V17.9199H29.44ZM23.68 11.5199C22.6214 11.5199 21.76 10.6585 21.76 9.5999C21.76 8.54134 22.6214 7.6799 23.68 7.6799C24.7386 7.6799 25.6 8.54134 25.6 9.5999C25.6 10.6585 24.7386 11.5199 23.68 11.5199ZM30.72 24.3199H29.0451L29.5251 20.4799H2.47488L2.95488 24.3199H1.28V19.1999H30.72V24.3199Z" fill="#FFC726"/>
<path d="M8.96045 24.3198V31.9998H23.0404V24.3198H8.96045ZM21.7604 30.7198H10.2404V25.5998H21.7604V30.7198Z" fill="#FFC726"/>
<path d="M2.55908 0V14.345L6.66404 10.24H19.1991V0H2.55908ZM17.9191 8.96H6.13412L3.83908 11.255V1.28H17.9191V8.96Z" fill="#FFC726"/>
</svg>
