<svg width="32" height="32" viewBox="0 0 32 32" fill="none" xmlns="http://www.w3.org/2000/svg">
<g clip-path="url(#clip0_1:14272)">
<path d="M13.5748 1.46438C13.4579 1.34813 13.2973 1.28125 13.1323 1.28125C12.9679 1.28125 12.8067 1.34813 12.6904 1.46438C12.5742 1.58063 12.5073 1.74187 12.5073 1.90625C12.5073 2.07063 12.5742 2.23188 12.6904 2.34812C12.8067 2.46438 12.9679 2.53125 13.1323 2.53125C13.2973 2.53125 13.4579 2.46438 13.5748 2.34812C13.6911 2.23188 13.7573 2.07063 13.7573 1.90625C13.7573 1.74187 13.6911 1.58063 13.5748 1.46438Z" fill="#FFC726"/>
<path d="M22.0598 11.6766L21.542 9.05084C21.3309 7.97985 20.8107 7.00629 20.0376 6.23548L19.1522 5.35255V1.90625C19.1522 1.56106 18.8724 1.28125 18.5272 1.28125C18.182 1.28125 17.9022 1.56106 17.9022 1.90625V5.61192C17.9022 5.77798 17.9683 5.93723 18.0859 6.05448L19.155 7.12054C19.7513 7.71529 20.1527 8.46635 20.3157 9.29259L20.8335 11.9184C20.8537 12.0209 20.8323 12.1248 20.7732 12.211C20.7142 12.2972 20.6249 12.3547 20.522 12.3728C20.323 12.4083 20.1287 12.2815 20.0805 12.0848L19.8129 10.9936C19.7186 10.6091 19.365 10.3643 18.9719 10.412C18.5789 10.4595 18.2937 10.7813 18.2937 11.1771V16.2609C18.2937 16.4616 18.1304 16.6248 17.9298 16.6248C17.7454 16.6248 17.5929 16.4868 17.5694 16.3088V13.6541C17.5694 13.3089 17.2896 13.0291 16.9444 13.0291C16.9438 13.0291 16.9432 13.0291 16.9427 13.0291C16.9421 13.0291 16.9415 13.0291 16.9409 13.0291C16.5957 13.0291 16.3159 13.3089 16.3159 13.6541V16.2609C16.3159 16.295 16.3174 16.3288 16.3194 16.3623V17.1949C16.3194 17.3955 16.1562 17.5587 15.9555 17.5587C15.7549 17.5587 15.5917 17.3955 15.5917 17.1949V16.3619C15.5937 16.3284 15.5952 16.2949 15.5952 16.2609V13.6541C15.5952 13.3089 15.3154 13.0291 14.9702 13.0291C14.9696 13.0291 14.969 13.0291 14.9684 13.0291C14.9679 13.0291 14.9672 13.0291 14.9667 13.0291C14.6215 13.0291 14.3417 13.3089 14.3417 13.6541V16.3086C14.3182 16.4868 14.1657 16.6249 13.9812 16.6249C13.7806 16.6249 13.6174 16.4616 13.6174 16.261V15.3286C13.6194 15.2952 13.6209 15.2616 13.6209 15.2277V13.6541C13.6209 13.3089 13.3411 13.0291 12.9959 13.0291C12.9953 13.0291 12.9947 13.0291 12.9941 13.0291C12.9936 13.0291 12.9929 13.0291 12.9924 13.0291C12.6472 13.0291 12.3674 13.3089 12.3674 13.6541V15.2753C12.3439 15.4534 12.1914 15.5916 12.0069 15.5916C11.8063 15.5916 11.6431 15.4283 11.6431 15.2277V13.0383V11.555V9.73222C11.6431 8.6026 12.0836 7.54116 12.8835 6.74354L13.5745 6.05454C13.6921 5.93729 13.7582 5.77804 13.7582 5.61198V4.13505C13.7582 3.78987 13.4784 3.51005 13.1332 3.51005C12.788 3.51005 12.5082 3.78987 12.5082 4.13505V5.35255L12.0009 5.85836C10.9641 6.89223 10.3931 8.26797 10.3931 9.73215V11.5549V13.0382V15.2276C10.3931 16.1175 11.1171 16.8415 12.0069 16.8415C12.1616 16.8415 12.3111 16.8192 12.4529 16.7783C12.6691 17.4151 13.2722 17.8747 13.9812 17.8747C14.1481 17.8747 14.3091 17.8493 14.4606 17.8021C14.701 18.3918 15.2803 18.8087 15.9554 18.8087C16.6305 18.8087 17.21 18.3919 17.4505 17.8021C17.602 17.8494 17.763 17.8748 17.9298 17.8748C18.8197 17.8748 19.5437 17.1508 19.5437 16.2609V13.3495C19.8838 13.578 20.3085 13.6797 20.7392 13.6039C21.1755 13.527 21.5538 13.2832 21.8043 12.9176C22.0548 12.5521 22.1455 12.1114 22.0598 11.6766Z" fill="#FFC726"/>
<path d="M15.5671 24.3247C15.4905 24.1921 15.397 24.0732 15.2899 23.9696C15.733 23.4639 15.8293 22.7119 15.4749 22.0981C15.3917 21.9539 15.2894 21.8274 15.173 21.72C15.3038 21.5519 15.401 21.3579 15.4578 21.146C15.5694 20.7296 15.5121 20.2947 15.2965 19.9214C14.959 19.3368 14.3085 19.0435 13.6777 19.13C13.6422 18.9735 13.5831 18.8215 13.5005 18.6786C13.285 18.3053 12.937 18.0382 12.5206 17.9267C12.1042 17.815 11.6693 17.8723 11.2959 18.0879L8.77455 19.5436C8.80236 19.1349 8.67824 18.7162 8.39711 18.3812C8.11224 18.0417 7.71205 17.836 7.27023 17.8018C6.82867 17.768 6.40136 17.9094 6.06767 18.201L4.05255 19.9624C3.23061 20.6809 2.64761 21.6181 2.36655 22.673L2.04467 23.8812L0.31261 24.8812C0.013672 25.0538 -0.0887655 25.436 0.0838595 25.735C0.19961 25.9355 0.409672 26.0476 0.625672 26.0475C0.731672 26.0475 0.839172 26.0205 0.937609 25.9637L2.89436 24.834C3.03817 24.7509 3.14305 24.6141 3.1858 24.4537L3.57448 22.9947C3.7913 22.1809 4.24111 21.4578 4.87523 20.9035L6.89036 19.1422C6.96905 19.0734 7.06955 19.04 7.17392 19.048C7.27811 19.0561 7.37242 19.1046 7.43961 19.1847C7.5698 19.3397 7.55717 19.571 7.41098 19.711L6.59973 20.4884C6.31386 20.7623 6.27886 21.1909 6.51648 21.5075C6.75417 21.8242 7.17548 21.9104 7.5183 21.7124L11.921 19.1705C12.0051 19.1219 12.1032 19.109 12.1971 19.1341C12.291 19.1592 12.3695 19.2195 12.4181 19.3037C12.4667 19.3879 12.4796 19.4859 12.4545 19.5798C12.4325 19.662 12.3824 19.731 12.314 19.7799L10.0255 21.1012C9.72655 21.2737 9.62411 21.656 9.79673 21.9549C9.79705 21.9554 9.79736 21.9559 9.79767 21.9564C9.79799 21.9569 9.79817 21.9574 9.79848 21.9579C9.97105 22.2569 10.3532 22.3592 10.6522 22.1867L12.9099 20.8832C12.9393 20.8663 12.9678 20.8482 12.9959 20.8296L13.717 20.4133C13.8907 20.313 14.1137 20.3727 14.2141 20.5465C14.3144 20.7202 14.2547 20.9432 14.0809 21.0436L13.3595 21.4601C13.3295 21.475 13.2997 21.4906 13.2704 21.5075L11.0127 22.811C10.7137 22.9835 10.6113 23.3658 10.7839 23.6647C10.8074 23.7052 10.836 23.7432 10.8677 23.7775C10.9876 23.9081 11.1552 23.9804 11.3275 23.9804C11.4335 23.9804 11.541 23.9534 11.6394 23.8965L13.9382 22.5693C14.1042 22.5005 14.3001 22.5634 14.3924 22.7232C14.4927 22.897 14.433 23.12 14.2592 23.2204L13.4521 23.6864C13.422 23.7014 13.392 23.717 13.3626 23.734L11.9998 24.5208C11.7009 24.6934 11.5984 25.0756 11.771 25.3745C11.8823 25.5664 12.0925 25.6902 12.3146 25.6902C12.4206 25.6902 12.5281 25.6632 12.6265 25.6064L14.0307 24.7957C14.1044 24.765 14.1854 24.7592 14.2637 24.7802C14.3576 24.8054 14.436 24.8655 14.4847 24.9497C14.585 25.1235 14.5252 25.3465 14.3515 25.4469L12.3484 26.6033L9.59223 28.1946C8.61392 28.7594 7.47442 28.9085 6.38373 28.6147L5.44155 28.3607C5.28111 28.3175 5.11023 28.3399 4.96642 28.423L3.00967 29.5527C2.71073 29.7253 2.6083 30.1075 2.78092 30.4065C2.89667 30.607 3.10673 30.7191 3.32273 30.719C3.42873 30.719 3.53623 30.692 3.63467 30.6352L5.36673 29.6352L6.05842 29.8217C7.47211 30.2025 8.94911 30.0092 10.2172 29.2772L11.7956 28.3659C11.7956 28.3659 11.7957 28.3659 11.7957 28.3658L12.9734 27.6859L13.0803 27.6241L14.9764 26.5294C15.7471 26.0844 16.012 25.0954 15.5671 24.3247Z" fill="#FFC726"/>
<path d="M31.6874 24.8813L29.9553 23.8813L29.7709 23.1891C29.394 21.7742 28.488 20.5918 27.22 19.8597L24.4638 18.2684L22.4608 17.1119C22.0874 16.8964 21.6525 16.8391 21.2362 16.9507C20.8198 17.0623 20.4717 17.3293 20.2562 17.7026C20.179 17.8364 20.1237 17.9768 20.0882 18.1197C19.8478 18.0715 19.5978 18.0785 19.3542 18.1438C18.9378 18.2554 18.5897 18.5225 18.3742 18.8958C18.2917 19.0387 18.2326 19.1907 18.1971 19.3471C17.5663 19.2607 16.9158 19.554 16.5783 20.1385C16.2408 20.7231 16.312 21.4331 16.7024 21.9361C16.5846 22.0451 16.4825 22.1723 16.4 22.3153C15.955 23.086 16.22 24.0749 16.9907 24.5199L19.512 25.9756C19.1442 26.1559 18.8436 26.4728 18.694 26.8837C18.5425 27.3001 18.5643 27.7496 18.7557 28.1493C18.947 28.5491 19.2833 28.848 19.7027 28.9911L22.2356 29.8556C23.2688 30.2083 24.372 30.2445 25.426 29.9605L26.6333 29.6351L28.3654 30.6351C28.4638 30.6919 28.5713 30.719 28.6773 30.719C28.8933 30.719 29.1034 30.6069 29.2191 30.4064C29.3918 30.1074 29.2893 29.7252 28.9904 29.5526L27.0336 28.4229C26.8898 28.3398 26.7189 28.3174 26.5585 28.3607L25.1008 28.7535C24.2877 28.9727 23.4365 28.9447 22.6393 28.6726L20.1064 27.8081C20.0075 27.7744 19.9282 27.7039 19.8831 27.6096C19.838 27.5154 19.8328 27.4094 19.8686 27.3112C19.9378 27.121 20.1444 27.0164 20.3388 27.0728L21.4176 27.3868C21.7978 27.4975 22.1864 27.3134 22.3418 26.9493C22.4972 26.5851 22.3612 26.1772 22.0183 25.9793L17.6157 23.4374C17.4419 23.3371 17.3822 23.1141 17.4825 22.9403C17.5311 22.8561 17.6095 22.7959 17.7034 22.7707C17.7818 22.7497 17.8628 22.7556 17.9364 22.7861L20.2355 24.1135C20.3339 24.1703 20.4413 24.1974 20.5474 24.1973C20.7195 24.1973 20.887 24.1252 21.0068 23.9949C21.0388 23.9605 21.0675 23.9223 21.091 23.8817C21.2637 23.5828 21.1612 23.2005 20.8623 23.0279L18.6047 21.7245C18.5752 21.7075 18.5452 21.6918 18.515 21.6768L17.794 21.2606C17.6203 21.1603 17.5605 20.9373 17.6609 20.7635C17.7095 20.6793 17.7879 20.6191 17.8818 20.5939C17.9758 20.5688 18.0738 20.5817 18.1579 20.6303L18.879 21.0466C18.907 21.0652 18.9356 21.0833 18.965 21.1003L21.2226 22.4037C21.321 22.4605 21.4285 22.4876 21.5345 22.4875C21.7067 22.4875 21.8742 22.4153 21.994 22.2849C22.026 22.2506 22.0545 22.2125 22.0782 22.1719C22.2508 21.873 22.1483 21.4907 21.8494 21.3181L19.5608 19.9968C19.4925 19.948 19.4425 19.8789 19.4204 19.7967C19.3953 19.7028 19.4082 19.6048 19.4568 19.5206C19.5054 19.4364 19.5838 19.3761 19.6778 19.351C19.7716 19.3259 19.8697 19.3388 19.9539 19.3874L20.7613 19.8536C20.7892 19.8721 20.8177 19.8901 20.847 19.9071L22.2098 20.6939C22.3083 20.7507 22.4157 20.7778 22.5218 20.7777C22.6938 20.7777 22.8614 20.7055 22.9812 20.5752C23.0132 20.5408 23.0417 20.5026 23.0653 20.4621C23.238 20.1631 23.1355 19.7809 22.8366 19.6083L21.4326 18.7977C21.29 18.6883 21.2467 18.4872 21.3388 18.3274C21.3875 18.2433 21.4659 18.183 21.5598 18.1579C21.6538 18.1328 21.7517 18.1456 21.8359 18.1943L23.732 19.289L23.839 19.3508L25.0167 20.0307C25.0167 20.0307 25.0167 20.0307 25.0167 20.0308L26.5951 20.9421C27.5735 21.507 28.2723 22.4191 28.5631 23.5107L28.8144 24.4536C28.8571 24.614 28.962 24.7509 29.1058 24.8339L31.0626 25.9636C31.161 26.0205 31.2685 26.0475 31.3745 26.0475C31.5905 26.0475 31.8006 25.9354 31.9163 25.7349C32.0888 25.4362 31.9863 25.0539 31.6874 24.8813Z" fill="#FFC726"/>
</g>
<defs>
<clipPath id="clip0_1:14272">
<rect width="32" height="32" fill="white"/>
</clipPath>
</defs>
</svg>
