<svg width="32" height="32" viewBox="0 0 32 32" fill="none" xmlns="http://www.w3.org/2000/svg">
<g clip-path="url(#clip0_1:14267)">
<path d="M28.9901 10.1292C29.2722 10.1292 29.5008 9.90059 29.5008 9.61857C29.5008 9.33654 29.2722 9.10791 28.9901 9.10791C28.7081 9.10791 28.4795 9.33654 28.4795 9.61857C28.4795 9.90059 28.7081 10.1292 28.9901 10.1292Z" fill="#FFC726"/>
<path d="M28.9901 7.24056C29.2722 7.24056 29.5008 7.01193 29.5008 6.7299C29.5008 6.44787 29.2722 6.21924 28.9901 6.21924C28.7081 6.21924 28.4795 6.44787 28.4795 6.7299C28.4795 7.01193 28.7081 7.24056 28.9901 7.24056Z" fill="#FFC726"/>
<path d="M30.3901 13.1976C31.4317 11.993 32 10.4718 32 8.86318C32 7.0899 31.3095 5.42283 30.0555 4.16899C28.8017 2.91516 27.1346 2.22461 25.3614 2.22461C23.7531 2.22461 22.2322 2.79267 21.0277 3.8338L20.891 3.69912C20.6901 3.50119 20.3667 3.50357 20.1688 3.7045C19.9709 3.90536 19.9733 4.22871 20.1742 4.42664L20.3077 4.55818C19.2823 5.7581 18.7229 7.26754 18.7229 8.86311C18.7229 9.06853 18.7326 9.27238 18.7509 9.47447L4.57986 25.3128C4.39916 25.5148 4.40767 25.8227 4.59934 26.0144L6.04368 27.4588L5.75329 27.7492C4.67219 28.8304 2.91294 28.8303 1.8317 27.7493C0.750533 26.668 0.750533 24.9088 1.8317 23.8276L11.4229 14.2364C12.9023 12.7569 12.9023 10.3498 11.4229 8.87032C9.94348 7.39098 7.5363 7.39098 6.05696 8.87032L0.148227 14.7791L0.870367 15.5013L6.7791 9.59253C7.86034 8.51143 9.61959 8.51137 10.7007 9.59253C11.7819 10.6737 11.7819 12.433 10.7007 13.5141L1.10956 23.1054C-0.369853 24.5848 -0.369853 26.9919 1.10956 28.4714C1.84927 29.211 2.82088 29.5809 3.79249 29.5809C4.76411 29.5809 5.73579 29.211 6.4755 28.4713L6.76582 28.1809L8.21024 29.6253C8.30965 29.7247 8.44038 29.7748 8.57138 29.7748C8.69291 29.7748 8.81465 29.7316 8.91182 29.6447L22.4949 17.4915C22.4968 17.4897 24.7499 15.4738 24.7499 15.4738C24.9521 15.4921 25.156 15.5017 25.3614 15.5017C26.9567 15.5017 28.4658 14.9426 29.6657 13.9175L29.7997 14.0522C29.8996 14.1525 30.0306 14.2026 30.1616 14.2026C30.2919 14.2026 30.4223 14.1531 30.5219 14.0539C30.7218 13.8549 30.7225 13.5316 30.5235 13.3317L30.3901 13.1976ZM8.59085 28.5615L7.12744 27.0981C7.12648 27.0972 5.66314 25.6338 5.66314 25.6338L16.9633 13.0042C17.4139 13.9195 18.0094 14.7511 18.7415 15.4832C19.4736 16.2152 20.3051 16.8108 21.2205 17.2613L8.59085 28.5615ZM22.0496 16.5195C21.0843 16.1029 20.2154 15.5127 19.4636 14.761C18.7118 14.0092 18.1217 13.1403 17.7051 12.175L18.9905 10.7385C19.2992 11.7927 19.8688 12.7589 20.6673 13.5574C21.4657 14.3559 22.4318 14.9254 23.4861 15.2342L22.0496 16.5195ZM25.3614 14.4804C23.861 14.4804 22.4504 13.8961 21.3895 12.8351C20.3285 11.7742 19.7442 10.3636 19.7442 8.86318C19.7442 7.53812 20.2005 6.28353 21.0378 5.27753L22.1143 6.33821C22.2138 6.43618 22.3432 6.48507 22.4727 6.48507C22.6046 6.48507 22.7365 6.43421 22.8365 6.33283C23.0344 6.13197 23.032 5.80862 22.8311 5.61069L21.7588 4.55417C22.7677 3.7077 24.0288 3.24593 25.3614 3.24593C26.8618 3.24593 28.2725 3.83019 29.3334 4.8912C30.3944 5.95208 30.9787 7.36272 30.9787 8.86318C30.9787 10.1979 30.5153 11.4609 29.6663 12.4705L24.279 7.05858C24.08 6.85853 23.7567 6.85785 23.5568 7.05694C23.3569 7.25589 23.3562 7.57924 23.5552 7.77908L28.9424 13.1909C27.9371 14.0256 26.6844 14.4804 25.3614 14.4804Z" fill="#FFC726"/>
</g>
<defs>
<clipPath id="clip0_1:14267">
<rect width="32" height="32" fill="white"/>
</clipPath>
</defs>
</svg>
