<svg width="32" height="32" viewBox="0 0 32 32" fill="none" xmlns="http://www.w3.org/2000/svg">
<g clip-path="url(#clip0_1:14290)">
<path d="M29.8117 27.7818C30.1891 27.315 30.3961 26.7335 30.3984 26.1332V25.0666C30.3984 23.5938 29.2045 22.3999 27.7317 22.3999C26.259 22.3999 25.0651 23.5938 25.0651 25.0666V26.1332C25.0674 26.7335 25.2743 27.315 25.6517 27.7818C24.9895 27.9049 24.3987 28.2747 23.9984 28.8164C23.5981 28.2747 23.0073 27.9049 22.3451 27.7818C22.7225 27.315 22.9294 26.7335 22.9317 26.1332V25.0666C22.9317 23.5938 21.7378 22.3999 20.2651 22.3999C18.7923 22.3999 17.5984 23.5938 17.5984 25.0666V26.1332C17.6007 26.7335 17.8077 27.315 18.1851 27.7818C17.5229 27.9049 16.932 28.2747 16.5317 28.8164C16.1315 28.2747 15.5406 27.9049 14.8784 27.7818C15.2558 27.315 15.4627 26.7335 15.4651 26.1332V25.0666C15.4651 23.5938 14.2711 22.3999 12.7984 22.3999C11.3257 22.3999 10.1317 23.5938 10.1317 25.0666V26.1332C10.1341 26.7335 10.341 27.315 10.7184 27.7818C9.45367 28.0132 8.53414 29.1142 8.53174 30.3999V31.9999H9.59841V30.3999C9.59841 29.5162 10.3147 28.7999 11.1984 28.7999H14.3984C15.2821 28.7999 15.9984 29.5162 15.9984 30.3999V31.9999H17.0651V30.3999C17.0651 29.5162 17.7814 28.7999 18.6651 28.7999H21.8651C22.7487 28.7999 23.4651 29.5162 23.4651 30.3999V31.9999H24.5317V30.3999C24.5317 29.5162 25.2481 28.7999 26.1317 28.7999H29.3317C30.2154 28.7999 30.9317 29.5162 30.9317 30.3999V31.9999H31.9984V30.3999C31.996 29.1142 31.0765 28.0132 29.8117 27.7818ZM14.3984 26.1332C14.3984 27.0169 13.6821 27.7332 12.7984 27.7332C11.9147 27.7332 11.1984 27.0169 11.1984 26.1332V25.0666C11.1984 24.1829 11.9147 23.4666 12.7984 23.4666C13.6821 23.4666 14.3984 24.1829 14.3984 25.0666V26.1332ZM21.8651 26.1332C21.8651 27.0169 21.1487 27.7332 20.2651 27.7332C19.3814 27.7332 18.6651 27.0169 18.6651 26.1332V25.0666C18.6651 24.1829 19.3814 23.4666 20.2651 23.4666C21.1487 23.4666 21.8651 24.1829 21.8651 25.0666V26.1332ZM29.3317 26.1332C29.3317 27.0169 28.6154 27.7332 27.7317 27.7332C26.8481 27.7332 26.1317 27.0169 26.1317 26.1332V25.0666C26.1317 24.1829 26.8481 23.4666 27.7317 23.4666C28.6154 23.4666 29.3317 24.1829 29.3317 25.0666V26.1332Z" fill="#FFC726"/>
<path d="M12.9951 10.7035C12.9329 10.679 12.8668 10.6664 12.8 10.6663H10.6667C10.4424 10.6663 10.2421 10.8065 10.1653 11.0173L9.6 12.5719L9.58133 12.5213C9.17427 11.4094 8.1174 10.669 6.93333 10.6663H6.91947C7.2724 10.2075 7.46473 9.64527 7.46667 9.06634V7.99967C7.46667 6.52694 6.27273 5.33301 4.8 5.33301C3.32727 5.33301 2.13333 6.52694 2.13333 7.99967V9.06634C2.13527 9.64527 2.3276 10.2075 2.68053 10.6663H2.66667C1.19467 10.6681 0.00173333 11.861 0 13.333V19.733C0 20.0275 0.2388 20.2663 0.533333 20.2663H2.13333V25.4397L1.15627 26.9037C0.9928 27.1487 1.05887 27.4799 1.30393 27.6433C1.3916 27.7018 1.4946 27.733 1.6 27.733H8C8.29453 27.7331 8.5334 27.4943 8.5334 27.1997C8.5334 27.0943 8.5022 26.9913 8.44373 26.9037L7.46667 25.4397V15.5922L7.60107 15.8589C8.14 16.936 9.45 17.3723 10.5271 16.8334C11.0045 16.5946 11.3776 16.189 11.576 15.6935L12.4421 13.5287L13.2955 11.3954C13.4036 11.1214 13.2691 10.8117 12.9951 10.7035ZM3.2 7.99967C3.2 7.11601 3.91633 6.39967 4.8 6.39967C5.68367 6.39967 6.4 7.11601 6.4 7.99967V9.06634C6.4 9.95001 5.68367 10.6663 4.8 10.6663C3.91633 10.6663 3.2 9.95001 3.2 9.06634V7.99967ZM2.13333 19.1997H1.06667V18.133H2.13333V19.1997ZM5.33333 26.6663V20.2663H4.26667V26.6663H2.5968L3.1104 25.8957C3.16867 25.8079 3.1998 25.705 3.2 25.5997V19.1997H6.4V25.5997C6.4002 25.705 6.43133 25.8079 6.4896 25.8957L7.0032 26.6663H5.33333ZM10.5856 15.2999C10.3567 15.8711 9.70807 16.1485 9.13693 15.9196C8.88407 15.8183 8.67713 15.6278 8.5552 15.3842L7.41333 13.0946C7.285 12.8295 6.966 12.7186 6.70087 12.847C6.51487 12.9371 6.39767 13.1264 6.4 13.333V18.133H3.2V13.333C3.2 13.0385 2.9612 12.7997 2.66667 12.7997C2.37213 12.7997 2.13333 13.0385 2.13333 13.333V17.0663H1.06667V13.333C1.06667 12.4493 1.783 11.733 2.66667 11.733H4.26667V17.0663H5.33333V11.733H6.93333C7.66907 11.7345 8.32587 12.1945 8.57867 12.8855L9.09867 14.3154C9.19913 14.5923 9.50507 14.7353 9.78193 14.6348C9.93047 14.5809 10.0474 14.4639 10.1013 14.3154L10.2645 13.8663H11.1589L10.5856 15.2999ZM11.5856 12.7997H10.6523L11.04 11.733H12.0123L11.5856 12.7997Z" fill="#FFC726"/>
<path d="M31.4651 3.2C31.7596 3.2 31.9984 2.9612 31.9984 2.66667V0.533333C31.9984 0.2388 31.7596 0 31.4651 0H9.06507C8.77054 0 8.53174 0.2388 8.53174 0.533333V2.66667C8.53174 2.9612 8.77054 3.2 9.06507 3.2H9.59841V9.6H10.6651V3.2H29.8651V14.9333H12.7984V16H19.7317V18.3573L16.2651 20.3371L16.7941 21.2629L19.7317 19.5856V21.3333H20.7984V19.5856L23.7317 21.2629L24.2608 20.3371L20.7984 18.3573V16H31.9984V14.9333H30.9317V3.2H31.4651ZM9.59841 2.13333V1.06667H30.9317V2.13333H9.59841Z" fill="#FFC726"/>
<path d="M26.2636 5.88245L24.1303 5.34912L23.8711 6.38379L24.87 6.63339L20.822 9.46699L18.4673 7.58325C18.2809 7.43432 18.0182 7.42732 17.8241 7.56619L14.0908 10.2329L14.7106 11.1001L18.1159 8.66805L20.4673 10.5497C20.6524 10.698 20.9132 10.7063 21.1073 10.5699L25.6007 7.42432V8.53312H26.6673V6.39979C26.6673 6.15519 26.5009 5.94192 26.2636 5.88245Z" fill="#FFC726"/>
</g>
<defs>
<clipPath id="clip0_1:14290">
<rect width="32" height="32" fill="white"/>
</clipPath>
</defs>
</svg>
