<svg width="24" height="24" viewBox="0 0 24 24" fill="none" xmlns="http://www.w3.org/2000/svg">
<path fill-rule="evenodd" clip-rule="evenodd" d="M10.1592 15.2438V9.75676L14.8642 12.4998L10.1592 15.2438ZM20.6242 8.02976C20.4172 7.23076 19.8072 6.60176 19.0332 6.38876C17.6292 5.99976 12.0002 5.99976 12.0002 5.99976C12.0002 5.99976 6.37124 5.99976 4.96724 6.38876C4.19324 6.60176 3.58324 7.23076 3.37624 8.02976C3.00024 9.47776 3.00024 12.4998 3.00024 12.4998C3.00024 12.4998 3.00024 15.5218 3.37624 16.9708C3.58324 17.7688 4.19324 18.3988 4.96724 18.6118C6.37124 18.9998 12.0002 18.9998 12.0002 18.9998C12.0002 18.9998 17.6292 18.9998 19.0332 18.6118C19.8072 18.3988 20.4172 17.7688 20.6242 16.9708C21.0002 15.5218 21.0002 12.4998 21.0002 12.4998C21.0002 12.4998 21.0002 9.47776 20.6242 8.02976Z" fill="white"/>
</svg>
