<svg width="24" height="24" viewBox="0 0 24 24" fill="none" xmlns="http://www.w3.org/2000/svg">
<path fill-rule="evenodd" clip-rule="evenodd" d="M16.8047 6.11576C16.2077 6.11576 15.7247 6.59876 15.7247 7.19576C15.7247 7.79176 16.2077 8.27576 16.8047 8.27576C17.4007 8.27576 17.8837 7.79176 17.8837 7.19576C17.8837 6.59876 17.4007 6.11576 16.8047 6.11576ZM19.3262 15.6368C19.2862 16.5138 19.1392 16.9908 19.0152 17.3078C18.8522 17.7278 18.6582 18.0278 18.3432 18.3428C18.0272 18.6578 17.7282 18.8528 17.3072 19.0158C16.9912 19.1388 16.5142 19.2858 15.6372 19.3258C14.6872 19.3688 14.4032 19.3788 12.0002 19.3788C9.59724 19.3788 9.31224 19.3688 8.36324 19.3258C7.48524 19.2858 7.00924 19.1388 6.69224 19.0158C6.27124 18.8528 5.97224 18.6578 5.65724 18.3428C5.34224 18.0278 5.14724 17.7278 4.98424 17.3078C4.86024 16.9908 4.71424 16.5138 4.67424 15.6368C4.63124 14.6878 4.62224 14.4038 4.62224 11.9998C4.62224 9.59676 4.63124 9.31176 4.67424 8.36376C4.71424 7.48576 4.86024 7.00976 4.98424 6.69176C5.14724 6.27176 5.34224 5.97176 5.65724 5.65776C5.97224 5.34276 6.27124 5.14776 6.69224 4.98376C7.00924 4.86076 7.48524 4.71376 8.36324 4.67376C9.31224 4.63076 9.59724 4.62176 12.0002 4.62176C14.4032 4.62176 14.6872 4.63076 15.6372 4.67376C16.5142 4.71376 16.9912 4.86076 17.3072 4.98376C17.7282 5.14776 18.0272 5.34276 18.3432 5.65776C18.6582 5.97176 18.8522 6.27176 19.0152 6.69176C19.1392 7.00976 19.2862 7.48576 19.3262 8.36376C19.3692 9.31176 19.3782 9.59676 19.3782 11.9998C19.3782 14.4038 19.3692 14.6878 19.3262 15.6368ZM12 15.0001C10.343 15.0001 9.00004 13.6571 9.00004 12.0001C9.00004 10.3431 10.343 9.00006 12 9.00006C13.657 9.00006 15 10.3431 15 12.0001C15 13.6571 13.657 15.0001 12 15.0001ZM12 7.37806C9.44704 7.37806 7.37804 9.44706 7.37804 12.0001C7.37804 14.5521 9.44704 16.6221 12 16.6221C14.553 16.6221 16.622 14.5521 16.622 12.0001C16.622 9.44706 14.553 7.37806 12 7.37806ZM20.9462 8.28876C20.9022 7.33176 20.7502 6.67776 20.5272 6.10476C20.2982 5.51276 19.9902 5.01076 19.4892 4.51076C18.9892 4.01076 18.4872 3.70276 17.8952 3.47276C17.3232 3.24976 16.6692 3.09776 15.7112 3.05376C14.7512 3.01076 14.4442 2.99976 12.0002 2.99976C9.55524 2.99976 9.24924 3.01076 8.28924 3.05376C7.33124 3.09776 6.67724 3.24976 6.10424 3.47276C5.51324 3.70276 5.01124 4.01076 4.51124 4.51076C4.01024 5.01076 3.70224 5.51276 3.47224 6.10476C3.25024 6.67776 3.09724 7.33176 3.05424 8.28876C3.01124 9.24876 3.00024 9.55576 3.00024 11.9998C3.00024 14.4448 3.01124 14.7508 3.05424 15.7108C3.09724 16.6688 3.25024 17.3228 3.47224 17.8958C3.70224 18.4878 4.01024 18.9898 4.51124 19.4898C5.01124 19.9898 5.51324 20.2978 6.10424 20.5278C6.67724 20.7498 7.33124 20.9028 8.28924 20.9458C9.24924 20.9898 9.55524 20.9998 12.0002 20.9998C14.4442 20.9998 14.7512 20.9898 15.7112 20.9458C16.6692 20.9028 17.3232 20.7498 17.8952 20.5278C18.4872 20.2978 18.9892 19.9898 19.4892 19.4898C19.9902 18.9898 20.2982 18.4878 20.5272 17.8958C20.7502 17.3228 20.9022 16.6688 20.9462 15.7108C20.9892 14.7508 21.0002 14.4448 21.0002 11.9998C21.0002 9.55576 20.9892 9.24876 20.9462 8.28876Z" fill="white"/>
</svg>
