<svg width="32" height="32" viewBox="0 0 32 32" fill="none" xmlns="http://www.w3.org/2000/svg">
<path d="M2.64453 2.64462C2.59934 2.69242 2.5637 2.74843 2.53953 2.80962C2.51314 2.86948 2.49951 2.93419 2.49951 2.99962C2.49951 3.06504 2.51314 3.12975 2.53953 3.18962C2.56248 3.25142 2.59827 3.30765 2.64453 3.35462C2.73932 3.44757 2.86678 3.49964 2.99953 3.49964C3.13229 3.49964 3.25975 3.44757 3.35453 3.35462C3.44749 3.25983 3.49956 3.13237 3.49956 2.99962C3.49956 2.86686 3.44749 2.7394 3.35453 2.64462C3.25784 2.5554 3.1311 2.50586 2.99953 2.50586C2.86797 2.50586 2.74123 2.5554 2.64453 2.64462Z" fill="#FFC726"/>
<path d="M4.30954 2.54004C4.24774 2.56299 4.1915 2.59877 4.14454 2.64504C4.05158 2.73982 3.99951 2.86728 3.99951 3.00004C3.99951 3.13279 4.05158 3.26026 4.14454 3.35504C4.21447 3.42555 4.30382 3.47364 4.4012 3.49318C4.49857 3.51271 4.59956 3.50281 4.69128 3.46472C4.783 3.42664 4.8613 3.3621 4.9162 3.27934C4.9711 3.19658 5.00012 3.09935 4.99954 3.00004C4.9976 2.86767 4.94582 2.74091 4.85454 2.64504C4.78364 2.57661 4.69438 2.53026 4.59763 2.51162C4.50087 2.49298 4.40079 2.50285 4.30954 2.54004Z" fill="#FFC726"/>
<path d="M5.80954 2.53983C5.74835 2.56399 5.69234 2.59963 5.64454 2.64483C5.55158 2.73961 5.49951 2.86707 5.49951 2.99983C5.49951 3.13259 5.55158 3.26005 5.64454 3.35483C5.69317 3.39896 5.74897 3.43447 5.80954 3.45983C5.86965 3.48545 5.9342 3.49904 5.99954 3.49983C6.06538 3.5005 6.1307 3.48802 6.19167 3.46313C6.25263 3.43824 6.30802 3.40144 6.35458 3.35488C6.40114 3.30831 6.43795 3.25293 6.46284 3.19196C6.48773 3.131 6.5002 3.06568 6.49954 2.99983C6.4976 2.86747 6.44582 2.7407 6.35454 2.64483C6.28298 2.57749 6.19376 2.53186 6.09727 2.51327C6.00078 2.49468 5.90099 2.50389 5.80954 2.53983Z" fill="#FFC726"/>
<path d="M14.5 9.5H7.5V10.5H14.5V9.5Z" fill="#FFC726"/>
<path d="M14.5 12.5H7.5V13.5H14.5V12.5Z" fill="#FFC726"/>
<path d="M17 15.5H7.5V16.5H17V15.5Z" fill="#FFC726"/>
<path d="M14 18.5H7.5V19.5H14V18.5Z" fill="#FFC726"/>
<path d="M11.5 21.5H7.5V22.5H11.5V21.5Z" fill="#FFC726"/>
<path d="M10.5 24.5H7.5V25.5H10.5V24.5Z" fill="#FFC726"/>
<path d="M29.0855 7C28.834 6.99927 28.5848 7.04849 28.3525 7.14479C28.1202 7.24109 27.9092 7.38256 27.732 7.561L26 9.293V2.5C26 2.10218 25.842 1.72064 25.5607 1.43934C25.2794 1.15804 24.8978 1 24.5 1H2.5C2.10218 1 1.72064 1.15804 1.43934 1.43934C1.15804 1.72064 1 2.10218 1 2.5V29.5C1 29.8978 1.15804 30.2794 1.43934 30.5607C1.72064 30.842 2.10218 31 2.5 31H24.5C24.8978 31 25.2794 30.842 25.5607 30.5607C25.842 30.2794 26 29.8978 26 29.5V14.707L30.439 10.268C30.7069 10.0003 30.8894 9.65924 30.9633 9.28785C31.0373 8.91646 30.9994 8.53148 30.8545 8.18161C30.7096 7.83175 30.4642 7.53273 30.1493 7.32239C29.8344 7.11206 29.4642 6.99986 29.0855 7ZM2 2.5C2 2.36739 2.05268 2.24021 2.14645 2.14645C2.24021 2.05268 2.36739 2 2.5 2H24.5C24.6326 2 24.7598 2.05268 24.8536 2.14645C24.9473 2.24021 25 2.36739 25 2.5V4H2V2.5ZM25 29.5C25 29.6326 24.9473 29.7598 24.8536 29.8536C24.7598 29.9473 24.6326 30 24.5 30H2.5C2.36739 30 2.24021 29.9473 2.14645 29.8536C2.05268 29.7598 2 29.6326 2 29.5V5H25V10.293L22 13.293V11.793L16.707 6.5H5V28.5H22V18.707L25 15.707V29.5ZM13.063 22.23L11.7095 26.2905L15.77 24.937L17.207 23.5L21 19.707V27.5H6V7.5H16V12.5H21V14.293L14.5 20.793L13.063 22.23ZM14.5 22.207L15.793 23.5L15.23 24.063L13.2905 24.7095L13.937 22.77L14.5 22.207ZM17 8.207L20.293 11.5H17V8.207ZM16.5 22.793L15.207 21.5L27 9.707L28.293 11L16.5 22.793ZM29.732 9.561L29 10.293L27.707 9L28.439 8.268C28.5232 8.18008 28.6241 8.10987 28.7359 8.06147C28.8476 8.01307 28.9678 7.98747 29.0896 7.98616C29.2113 7.98486 29.3321 8.00787 29.4448 8.05386C29.5575 8.09984 29.6599 8.16787 29.746 8.25396C29.8321 8.34005 29.9002 8.44246 29.9461 8.55519C29.9921 8.66792 30.0151 8.78869 30.0138 8.91043C30.0125 9.03217 29.9869 9.15243 29.9385 9.26414C29.8901 9.37585 29.8199 9.47678 29.732 9.561Z" fill="#FFC726"/>
</svg>
