<svg width="24" height="24" viewBox="0 0 24 24" fill="none" xmlns="http://www.w3.org/2000/svg">
<path fill-rule="evenodd" clip-rule="evenodd" d="M20.587 7.74451C20.712 7.31551 20.587 6.99951 19.992 6.99951H18.023C17.522 6.99951 17.291 7.27251 17.166 7.57351C17.166 7.57351 16.164 10.0845 14.746 11.7165C14.287 12.1885 14.078 12.3385 13.828 12.3385C13.702 12.3385 13.521 12.1885 13.521 11.7595V7.74451C13.521 7.22951 13.376 6.99951 12.959 6.99951H9.864C9.551 6.99951 9.363 7.23951 9.363 7.46551C9.363 7.95351 10.072 8.06651 10.146 9.44051V12.4245C10.146 13.0785 10.031 13.1975 9.78 13.1975C9.113 13.1975 7.489 10.6745 6.526 7.78751C6.337 7.22651 6.148 6.99951 5.645 6.99951H3.675C3.112 6.99951 3 7.27251 3 7.57351C3 8.10951 3.668 10.7715 6.108 14.2925C7.736 16.6965 10.028 17.9995 12.115 17.9995C13.366 17.9995 13.521 17.7105 13.521 17.2115V15.3945C13.521 14.8155 13.64 14.7005 14.036 14.7005C14.328 14.7005 14.829 14.8505 15.997 16.0095C17.333 17.3835 17.553 17.9995 18.304 17.9995H20.273C20.836 17.9995 21.117 17.7105 20.955 17.1395C20.777 16.5695 20.139 15.7435 19.294 14.7645C18.835 14.2065 18.146 13.6055 17.938 13.3045C17.646 12.9185 17.729 12.7465 17.938 12.4035C17.938 12.4035 20.337 8.92551 20.587 7.74451Z" fill="white"/>
</svg>
